<svg width="100" height="100" viewBox="0 0 100 100" fill="none" xmlns="http://www.w3.org/2000/svg">
<rect width="100" height="100" fill="#121521"/>
<path d="M73 79.8673C71.8125 80.6574 70.1962 81.5464 68.151 82.5341C66.1059 83.5218 63.6979 84.3778 60.9271 85.1021C58.2222 85.7606 55.2535 86.0569 52.0208 85.991C46.4132 85.9252 41.3993 84.9375 36.9792 83.0279C32.559 81.1184 28.7656 78.5174 25.599 75.2251C22.4983 71.8669 20.1233 68.0478 18.474 63.7678C16.8247 59.4877 16 54.9114 16 50.0387C16 44.7052 16.8576 39.7996 18.5729 35.322C20.3542 30.7786 22.8281 26.8607 25.9948 23.5684C29.1615 20.2102 32.8889 17.6093 37.1771 15.7656C41.5312 13.9219 46.2812 13 51.4271 13C55.7153 13 59.6076 13.5926 63.1042 14.7779C66.6007 15.8972 69.6024 17.2142 72.1094 18.7287L68.25 27.7167C66.2708 26.3998 63.8628 25.1487 61.026 23.9635C58.1892 22.7782 55.0885 22.1856 51.7239 22.1856C48.2274 22.1856 44.9288 22.9099 41.8281 24.3585C38.7274 25.7413 35.9896 27.6838 33.6146 30.186C31.2396 32.6223 29.3594 35.5196 27.974 38.8777C26.6545 42.1701 25.9948 45.7258 25.9948 49.5449C25.9948 54.6809 27.0503 59.3231 29.1615 63.4715C31.3385 67.554 34.3733 70.7804 38.2656 73.1509C42.224 75.5214 46.842 76.7066 52.1198 76.7066C55.8142 76.7066 59.0469 76.1799 61.8177 75.1263C64.6545 74.0069 66.9965 72.7229 68.8437 71.2743L73 79.8673Z" fill="white"/>
<path d="M77 50.4651L51 70V50V30L77 50.4651Z" fill="#40467C"/>
</svg>
